<svg width="16" height="24" viewBox="0 0 16 24" fill="none" xmlns="http://www.w3.org/2000/svg">
<path fill-rule="evenodd" clip-rule="evenodd" d="M5 3C4.44772 3 4 3.44772 4 4C4 4.55228 4.44772 5 5 5H9C9.55228 5 10 4.55228 10 4C10 3.44772 9.55228 3 9 3H5ZM7 18C10.3137 18 13 15.3137 13 12C13 8.68629 10.3137 6 7 6C3.68629 6 1 8.68629 1 12C1 15.3137 3.68629 18 7 18ZM10.0785 9.06775C10.3206 8.74159 10.2872 8.28725 9.99998 8L5.9685 11.6065C5.5823 11.9519 5.56564 12.5509 5.93205 12.9174C6.32169 13.307 6.96649 13.2596 7.29495 12.8172L10.0785 9.06775Z" fill="white"/>
</svg>
